<svg width="27" height="20" viewBox="0 0 27 20" fill="none" xmlns="http://www.w3.org/2000/svg">
<g id="Email" clip-path="url(#clip0_2_79)">
<g id="Layer 2">
<path id="Icons" d="M0 2.35063V1.66667C0 1.22464 0.17779 0.800716 0.494257 0.488155C0.810725 0.175595 1.23995 0 1.6875 0L25.3125 0C25.7601 0 26.1893 0.175595 26.5057 0.488155C26.8222 0.800716 27 1.22464 27 1.66667V2.35063L13.5 10.684L0 2.35063ZM13.9472 12.3735C13.8131 12.4562 13.6581 12.5001 13.5 12.5001C13.3419 12.5001 13.1869 12.4562 13.0528 12.3735L0 4.31604V18.3333C0 18.7754 0.17779 19.1993 0.494257 19.5118C0.810725 19.8244 1.23995 20 1.6875 20H25.3125C25.7601 20 26.1893 19.8244 26.5057 19.5118C26.8222 19.1993 27 18.7754 27 18.3333V4.31604L13.9472 12.3735Z" fill="#76C5E5"/>
</g>
</g>
<defs>
<clipPath id="clip0_2_79">
<rect width="27" height="20" fill="white"/>
</clipPath>
</defs>
</svg>
