<svg width="25" height="25" viewBox="0 0 25 25" fill="none" xmlns="http://www.w3.org/2000/svg">
<g id="profile" clip-path="url(#clip0_2_73)">
<g id="Layer 2">
<path id="Vector" d="M12.5 10.125C15.0888 10.125 17.1875 8.02633 17.1875 5.4375C17.1875 2.84867 15.0888 0.75 12.5 0.75C9.91117 0.75 7.8125 2.84867 7.8125 5.4375C7.8125 8.02633 9.91117 10.125 12.5 10.125Z" fill="#76C5E5"/>
<path id="Vector_2" d="M24.1094 20.9688C23.6231 18.7549 22.5082 16.7285 20.8984 15.1328C20.5077 14.7407 20.0843 14.3827 19.6328 14.0625C17.5766 12.5201 15.0703 11.6966 12.5 11.7188C9.35714 11.7027 6.3354 12.9299 4.09375 15.1328C2.48399 16.7285 1.36905 18.7549 0.882813 20.9688C0.798298 21.3602 0.802864 21.7657 0.896172 22.1551C0.98948 22.5446 1.16914 22.9081 1.42188 23.2188C1.68361 23.5361 2.01321 23.7907 2.38638 23.9637C2.75956 24.1368 3.16681 24.224 3.57813 24.2188H21.4219C21.8344 24.219 22.2417 24.1265 22.6136 23.9479C22.9855 23.7694 23.3125 23.5095 23.5703 23.1875C23.8185 22.8805 23.9956 22.5223 24.0888 22.1386C24.182 21.755 24.189 21.3554 24.1094 20.9688Z" fill="#76C5E5"/>
</g>
</g>
<defs>
<clipPath id="clip0_2_73">
<rect width="25" height="25" fill="white"/>
</clipPath>
</defs>
</svg>
